<?xml version="1.0" encoding="UTF-8" standalone="no"?>
<!-- Created with Inkscape (http://www.inkscape.org/) -->

<svg
   xmlns:dc="http://purl.org/dc/elements/1.1/"
   xmlns:cc="http://creativecommons.org/ns#"
   xmlns:rdf="http://www.w3.org/1999/02/22-rdf-syntax-ns#"
   xmlns:svg="http://www.w3.org/2000/svg"
   xmlns="http://www.w3.org/2000/svg"
   xmlns:sodipodi="http://sodipodi.sourceforge.net/DTD/sodipodi-0.dtd"
   xmlns:inkscape="http://www.inkscape.org/namespaces/inkscape"
   width="210mm"
   height="297mm"
   viewBox="0 0 210 297"
   version="1.1"
   id="svg8"
   inkscape:version="0.92.2 (5c3e80d, 2017-08-06)"
   sodipodi:docname="dolphin.svg">
  <defs
     id="defs2" />
  <sodipodi:namedview
     id="base"
     pagecolor="#ffffff"
     bordercolor="#666666"
     borderopacity="1.0"
     inkscape:pageopacity="0.0"
     inkscape:pageshadow="2"
     inkscape:zoom="1.979899"
     inkscape:cx="441.45932"
     inkscape:cy="595.21736"
     inkscape:document-units="mm"
     inkscape:current-layer="layer1"
     showgrid="false"
     inkscape:window-width="1680"
     inkscape:window-height="1006"
     inkscape:window-x="0"
     inkscape:window-y="22"
     inkscape:window-maximized="0" />
  <metadata
     id="metadata5">
    <rdf:RDF>
      <cc:Work
         rdf:about="">
        <dc:format>image/svg+xml</dc:format>
        <dc:type
           rdf:resource="http://purl.org/dc/dcmitype/StillImage" />
        <dc:title></dc:title>
      </cc:Work>
    </rdf:RDF>
  </metadata>
  <g
     inkscape:label="Layer 1"
     inkscape:groupmode="layer"
     id="layer1">
    <path
       style="fill:none;stroke:#000000;stroke-width:0.26458332px;stroke-linecap:butt;stroke-linejoin:miter;stroke-opacity:1"
       d="m 94.078872,135.97011 c -7.720161,2.60227 -15.517431,4.878 -25.630075,13.58825 -3.497269,3.63948 -7.708008,7.3436 -6.654684,14.00123 -3.830732,2.54284 -3.541972,6.98195 -1.251113,7.66786 -1.823403,6.19921 15.467637,-4.99442 23.853701,-7.56179 6.399839,-2.03609 14.217833,-3.42595 21.041219,-3.4064 2.24039,0.006 4.37355,0.16478 6.31408,0.5021 14.47681,1.2871 24.213,10.35567 32.03801,16.16788 1.24628,2.78196 1.77234,4.88649 1.77234,4.88649 -7.19869,3.33138 -13.2343,14.62825 -10.99051,15.8084 0,0 6.62619,-4.21968 14.34941,-2.85775 7.17726,1.26564 11.2752,5.36414 13.20136,6.97516 1.52933,-2.92555 -1.63225,-13.97649 -11.55201,-19.58081 -0.11334,-20.60343 -6.5471,-26.19455 -13.78193,-34.76275 -8.16685,-7.71027 -19.35892,-10.8631 -22.1414,-11.71775 -1.30303,-8.84715 8.25826,-9.80757 5.33774,-12.57309 -2.41109,-1.77765 -21.105133,3.49822 -25.778876,12.77762 z"
       id="path2278"
       inkscape:connector-curvature="0"
       sodipodi:nodetypes="cccccsccccsccccccc" />
    <path
       style="fill:none;stroke:#000000;stroke-width:0.26458332px;stroke-linecap:butt;stroke-linejoin:miter;stroke-opacity:1"
       d="m 60.543,171.22745 c 2.81536,-2.72728 7.198831,-4.23818 10.249247,-6.9946 2.27431,-4.72015 10.675015,-6.02545 17.007076,-6.66623 1.177941,-0.10411 5.740896,0.16733 5.740896,0.16733 4.037596,-4.54986 13.104691,-5.57723 16.937301,-3.30026 10.31352,-2.88699 19.44424,1.42718 27.49618,12.03818 2.93862,3.35033 4.83921,6.5761 5.81631,10.45737"
       id="path2293"
       inkscape:connector-curvature="0"
       sodipodi:nodetypes="cccsccc" />
    <path
       style="fill:none;stroke:#000000;stroke-width:0.26458332px;stroke-linecap:butt;stroke-linejoin:miter;stroke-opacity:1"
       d="m 93.360117,157.52678 c 4.544621,4.80927 17.802243,14.95563 22.212243,13.37754 0.70514,-0.97533 -1.30683,-3.24743 -3.42567,-6.88117 -1.98408,-3.40263 -3.1177,-7.58811 -1.66977,-9.58949"
       id="path2307"
       inkscape:connector-curvature="0"
       sodipodi:nodetypes="ccsc" />
    <path
       style="fill:none;stroke:#000000;stroke-width:0.23999999;stroke-linecap:butt;stroke-linejoin:miter;stroke-miterlimit:4;stroke-dasharray:none;stroke-opacity:1"
       d="m 76.420314,156.24609 c 1.894933,0.0264 2.207993,-2.24889 0.388073,-2.56748 -2.252352,-0.21731 -2.223253,2.3337 -0.388073,2.56748 z"
       id="path2372"
       inkscape:connector-curvature="0"
       sodipodi:nodetypes="ccc" />
    <path
       style="fill:none;stroke:#000000;stroke-width:0.26458332px;stroke-linecap:butt;stroke-linejoin:miter;stroke-opacity:1"
       d="m 84.891482,163.46546 c 2.194996,2.66401 6.454696,7.75531 8.427504,7.53729 1.196291,0.0613 -1.649858,-5.03507 0.659662,-9.57522"
       id="path2410"
       inkscape:connector-curvature="0"
       sodipodi:nodetypes="ccc" />
  </g>
</svg>
