<?xml version="1.0" encoding="UTF-8" standalone="no"?>
<svg
   xmlns:dc="http://purl.org/dc/elements/1.1/"
   xmlns:cc="http://creativecommons.org/ns#"
   xmlns:rdf="http://www.w3.org/1999/02/22-rdf-syntax-ns#"
   xmlns:svg="http://www.w3.org/2000/svg"
   xmlns="http://www.w3.org/2000/svg"
   xmlns:sodipodi="http://sodipodi.sourceforge.net/DTD/sodipodi-0.dtd"
   xmlns:inkscape="http://www.inkscape.org/namespaces/inkscape"
   viewBox="0 0 451 512"
   version="1.1"
   id="svg985"
   sodipodi:docname="HTML5.svg"
   width="451"
   height="512"
   inkscape:version="0.92.2 (5c3e80d, 2017-08-06)">
  <metadata
     id="metadata991">
    <rdf:RDF>
      <cc:Work
         rdf:about="">
        <dc:format>image/svg+xml</dc:format>
        <dc:type
           rdf:resource="http://purl.org/dc/dcmitype/StillImage" />
        <dc:title>HTML5 Logo Badge</dc:title>
      </cc:Work>
    </rdf:RDF>
  </metadata>
  <defs
     id="defs989" />
  <sodipodi:namedview
     pagecolor="#ffffff"
     bordercolor="#666666"
     borderopacity="1"
     objecttolerance="10"
     gridtolerance="10"
     guidetolerance="10"
     inkscape:pageopacity="0"
     inkscape:pageshadow="2"
     inkscape:window-width="1680"
     inkscape:window-height="1006"
     id="namedview987"
     showgrid="false"
     fit-margin-top="0"
     fit-margin-left="0"
     fit-margin-right="0"
     fit-margin-bottom="0"
     inkscape:zoom="1.3037281"
     inkscape:cx="133.95627"
     inkscape:cy="220.05469"
     inkscape:window-x="0"
     inkscape:window-y="22"
     inkscape:window-maximized="0"
     inkscape:current-layer="svg985" />
  <title
     id="title975">HTML5 Logo Badge</title>
  <path
     d="M 41,460 0,0 h 451 l -41,460 -185,52"
     id="path977"
     inkscape:connector-curvature="0"
     style="fill:#e34f26" />
  <path
     d="M 226,472 375,431 410,37 H 226"
     id="path979"
     inkscape:connector-curvature="0"
     style="fill:#ef652a" />
  <path
     d="m 226,208 h -75 l -5,-58 h 80 V 94 H 225 84 l 1,15 14,156 h 127 z m 0,147 h -1 l -63,-17 -4,-45 h -30 -26 l 7,89 116,32 h 1 z"
     id="path981"
     inkscape:connector-curvature="0"
     style="fill:#ebebeb" />
  <path
     d="m 225,208 v 57 h 70 l -7,73 -63,17 v 59 l 116,-32 1,-10 13,-149 2,-15 h -16 z m 0,-114 v 35 21 0 h 137 v 0 0 l 1,-12 3,-29 1,-15 z"
     id="path983"
     inkscape:connector-curvature="0"
     style="fill:#ffffff" />
</svg>
